<mxfile host="app.diagrams.net" agent="Mozilla/5.0 (Windows NT 10.0; Win64; x64; rv:130.0) Gecko/20100101 Firefox/130.0" version="24.7.14">
  <diagram name="Sida-1" id="wjXRVajEYNULjgo1aeQD">
    <mxGraphModel dx="1401" dy="310" grid="1" gridSize="10" guides="1" tooltips="1" connect="1" arrows="0" fold="1" page="1" pageScale="1" pageWidth="827" pageHeight="1169" math="0" shadow="0">
      <root>
        <mxCell id="0" />
        <mxCell id="1" parent="0" />
        <mxCell id="KLEY6VENuHxpQ8LY-NK0-1" value="" style="triangle;whiteSpace=wrap;html=1;" vertex="1" parent="1">
          <mxGeometry x="220" y="240" width="60" height="80" as="geometry" />
        </mxCell>
        <mxCell id="KLEY6VENuHxpQ8LY-NK0-2" value="" style="ellipse;whiteSpace=wrap;html=1;aspect=fixed;" vertex="1" parent="1">
          <mxGeometry x="280" y="275" width="10" height="10" as="geometry" />
        </mxCell>
        <mxCell id="KLEY6VENuHxpQ8LY-NK0-3" value="X" style="text;strokeColor=none;align=center;fillColor=none;html=1;verticalAlign=middle;whiteSpace=wrap;rounded=0;" vertex="1" parent="1">
          <mxGeometry x="90" y="265" width="60" height="30" as="geometry" />
        </mxCell>
        <mxCell id="KLEY6VENuHxpQ8LY-NK0-4" value="Y" style="text;strokeColor=none;align=center;fillColor=none;html=1;verticalAlign=middle;whiteSpace=wrap;rounded=0;" vertex="1" parent="1">
          <mxGeometry x="90" y="344" width="60" height="30" as="geometry" />
        </mxCell>
        <mxCell id="KLEY6VENuHxpQ8LY-NK0-5" value="Z" style="text;strokeColor=none;align=center;fillColor=none;html=1;verticalAlign=middle;whiteSpace=wrap;rounded=0;" vertex="1" parent="1">
          <mxGeometry x="90" y="505" width="60" height="30" as="geometry" />
        </mxCell>
        <mxCell id="KLEY6VENuHxpQ8LY-NK0-10" value="" style="line;strokeWidth=1;rotatable=0;dashed=0;labelPosition=right;align=left;verticalAlign=middle;spacingTop=0;spacingLeft=6;points=[];portConstraint=eastwest;" vertex="1" parent="1">
          <mxGeometry x="140" y="275" width="80" height="10" as="geometry" />
        </mxCell>
        <mxCell id="KLEY6VENuHxpQ8LY-NK0-11" value="" style="line;strokeWidth=1;rotatable=0;dashed=0;labelPosition=right;align=left;verticalAlign=middle;spacingTop=0;spacingLeft=6;points=[];portConstraint=eastwest;" vertex="1" parent="1">
          <mxGeometry x="140" y="354" width="200" height="10" as="geometry" />
        </mxCell>
        <mxCell id="KLEY6VENuHxpQ8LY-NK0-12" value="" style="line;strokeWidth=1;rotatable=0;dashed=0;labelPosition=right;align=left;verticalAlign=middle;spacingTop=0;spacingLeft=6;points=[];portConstraint=eastwest;" vertex="1" parent="1">
          <mxGeometry x="140" y="515" width="200" height="10" as="geometry" />
        </mxCell>
        <mxCell id="KLEY6VENuHxpQ8LY-NK0-14" value="" style="shape=or;whiteSpace=wrap;html=1;" vertex="1" parent="1">
          <mxGeometry x="333" y="259" width="80" height="115" as="geometry" />
        </mxCell>
        <mxCell id="KLEY6VENuHxpQ8LY-NK0-16" style="edgeStyle=orthogonalEdgeStyle;rounded=0;orthogonalLoop=1;jettySize=auto;html=1;entryX=-0.004;entryY=0.185;entryDx=0;entryDy=0;entryPerimeter=0;endArrow=none;endFill=0;" edge="1" parent="1" source="KLEY6VENuHxpQ8LY-NK0-2" target="KLEY6VENuHxpQ8LY-NK0-14">
          <mxGeometry relative="1" as="geometry">
            <Array as="points">
              <mxPoint x="330" y="280" />
            </Array>
          </mxGeometry>
        </mxCell>
        <mxCell id="KLEY6VENuHxpQ8LY-NK0-17" value="" style="shape=or;whiteSpace=wrap;html=1;" vertex="1" parent="1">
          <mxGeometry x="334" y="425" width="80" height="115" as="geometry" />
        </mxCell>
        <mxCell id="KLEY6VENuHxpQ8LY-NK0-20" value="" style="line;strokeWidth=1;rotatable=0;dashed=0;labelPosition=right;align=left;verticalAlign=middle;spacingTop=0;spacingLeft=6;points=[];portConstraint=eastwest;direction=south;" vertex="1" parent="1">
          <mxGeometry x="175" y="280" width="10" height="160" as="geometry" />
        </mxCell>
        <mxCell id="KLEY6VENuHxpQ8LY-NK0-21" value="" style="line;strokeWidth=1;rotatable=0;dashed=0;labelPosition=right;align=left;verticalAlign=middle;spacingTop=0;spacingLeft=6;points=[];portConstraint=eastwest;" vertex="1" parent="1">
          <mxGeometry x="180" y="435" width="154" height="10" as="geometry" />
        </mxCell>
        <mxCell id="KLEY6VENuHxpQ8LY-NK0-22" value="" style="ellipse;whiteSpace=wrap;html=1;aspect=fixed;fillColor=none;" vertex="1" parent="1">
          <mxGeometry x="-30" y="300" width="90" height="90" as="geometry" />
        </mxCell>
        <mxCell id="KLEY6VENuHxpQ8LY-NK0-29" value="" style="verticalLabelPosition=bottom;verticalAlign=top;html=1;shape=mxgraph.basic.half_circle;fillColor=none;" vertex="1" parent="1">
          <mxGeometry x="400" y="375" width="100" height="50" as="geometry" />
        </mxCell>
      </root>
    </mxGraphModel>
  </diagram>
</mxfile>
